<svg width="133" height="36" viewBox="0 0 133 36" fill="none" xmlns="http://www.w3.org/2000/svg">
<path d="M7.49067 28H0.429333V2.99733H3.24533C3.99911 2.99733 5.13689 2.96889 6.65867 2.912C8.18044 2.84089 9.432 2.80533 10.4133 2.80533C13.1724 2.80533 15.2631 3.53778 16.6853 5.00267C18.1076 6.46756 18.8187 8.66489 18.8187 11.5947C18.8187 13.3582 18.584 14.9653 18.1147 16.416C17.6596 17.8524 17.0409 19.0329 16.2587 19.9573C15.4764 20.8818 14.5876 21.5929 13.592 22.0907C12.5964 22.5884 11.544 22.8373 10.4347 22.8373C10.2924 22.8373 10.1431 22.8373 9.98667 22.8373C9.84444 22.8373 9.70933 22.8373 9.58133 22.8373C9.46756 22.8231 9.32533 22.816 9.15467 22.816C8.99822 22.8018 8.87022 22.7947 8.77067 22.7947C8.68533 22.7804 8.55733 22.7733 8.38667 22.7733C8.23022 22.7591 8.12356 22.752 8.06667 22.752C8.00978 22.752 7.90311 22.7449 7.74667 22.7307C7.59022 22.7164 7.50489 22.7093 7.49067 22.7093V28ZM11.8213 10.656C11.8213 9.60356 11.5369 8.75022 10.968 8.096C10.3991 7.44178 9.58133 7.11467 8.51467 7.11467H7.49067V18.208H8.28C9.40356 18.208 10.2711 17.8311 10.8827 17.0773C11.5084 16.3236 11.8213 15.2356 11.8213 13.8133V10.656ZM29.24 25.888C29.8658 25.888 30.3422 25.632 30.6693 25.12C31.0107 24.5938 31.1813 23.8756 31.1813 22.9653V16.224C31.1813 13.4507 30.5271 12.064 29.2187 12.064C28.6071 12.064 28.1307 12.3129 27.7893 12.8107C27.448 13.3084 27.2773 14.0124 27.2773 14.9227V21.856C27.2773 24.544 27.9316 25.888 29.24 25.888ZM29.0693 28.448C25.8124 28.448 23.4302 27.7084 21.9227 26.2293C20.4151 24.7502 19.6613 22.3893 19.6613 19.1467C19.6613 15.9324 20.4222 13.5147 21.944 11.8933C23.4658 10.2578 25.9404 9.44 29.368 9.44C32.7102 9.44 35.1209 10.2222 36.6 11.7867C38.0933 13.3369 38.84 15.6907 38.84 18.848C38.84 22.1191 38.0507 24.5369 36.472 26.1013C34.9076 27.6658 32.44 28.448 29.0693 28.448ZM40.9293 28V3.872L39.6493 3.104V1.12L46.4973 0.0533333H47.884V28H40.9293ZM59.4732 35.3387C58.0083 35.3387 56.6287 35.1253 55.3345 34.6987C54.0403 34.272 53.0945 33.696 52.4972 32.9707L53.6065 30.6667C54.4314 31.136 55.7398 31.3707 57.5318 31.3707C58.1007 31.3707 58.5914 31.3067 59.0038 31.1787C59.4163 31.0507 59.7861 30.8231 60.1132 30.496C60.4403 30.1831 60.6892 29.7351 60.8598 29.152C61.0305 28.5689 61.1229 27.8507 61.1372 26.9973V25.1627L60.9238 25.504C60.7816 25.7316 60.5612 26.0089 60.2625 26.336C59.9781 26.6489 59.6509 26.9689 59.2812 27.296C58.9114 27.6089 58.4563 27.8791 57.9158 28.1067C57.3896 28.3342 56.8492 28.448 56.2945 28.448C54.1754 28.448 52.6821 27.8578 51.8145 26.6773C50.9469 25.4827 50.5132 23.4773 50.5132 20.6613V13.088L49.7452 12.32V9.86667H57.5105V22.0053C57.5105 22.6596 57.6101 23.1431 57.8092 23.456C58.0225 23.7547 58.4421 23.904 59.0678 23.904C59.2527 23.904 59.4376 23.8756 59.6225 23.8187C59.8074 23.7476 59.9852 23.6551 60.1558 23.5413C60.3407 23.4276 60.5327 23.2853 60.7318 23.1147V13.088L59.5585 12.32V9.86667H67.6865V25.504C67.6865 28.6471 67.0181 31.072 65.6812 32.7787C64.3443 34.4853 62.2749 35.3387 59.4732 35.3387ZM85.5363 25.7387C83.7301 27.5449 81.5826 28.448 79.0937 28.448C77.3301 28.448 75.8012 28.1422 74.507 27.5307C73.227 26.9191 72.2101 26.0373 71.4563 24.8853C70.7026 23.7333 70.1479 22.4178 69.7923 20.9387C69.451 19.4596 69.2803 17.7742 69.2803 15.8827C69.2803 14.4747 69.3514 13.2089 69.4937 12.0853C69.6501 10.9618 69.899 9.888 70.2403 8.864C70.5817 7.84 71.051 6.95822 71.6483 6.21867C72.2457 5.46489 72.9781 4.81067 73.8457 4.256C74.7132 3.70133 75.7657 3.28889 77.003 3.01867C78.2403 2.73422 79.6483 2.592 81.227 2.592C81.9381 2.592 82.6137 2.63467 83.2537 2.72C83.9079 2.80533 84.4626 2.912 84.9177 3.04C85.3728 3.15378 85.7994 3.30311 86.1977 3.488C86.6101 3.65867 86.9301 3.81511 87.1577 3.95733C87.3994 4.08533 87.6199 4.22756 87.819 4.384C88.0181 4.54045 88.139 4.64711 88.1817 4.704C88.2386 4.76089 88.2812 4.80356 88.3097 4.832L87.9897 9.73867H84.107L82.891 6.90133C82.5781 6.73067 82.0732 6.64533 81.3763 6.64533C80.8074 6.64533 80.3381 6.69511 79.9683 6.79467C79.5986 6.89422 79.2288 7.10756 78.859 7.43467C78.5034 7.74756 78.219 8.20978 78.0057 8.82133C77.8066 9.41867 77.643 10.2364 77.515 11.2747C77.387 12.2987 77.323 13.5502 77.323 15.0293C77.323 18.1156 77.4866 20.4053 77.8137 21.8987C78.155 23.392 78.8306 24.1387 79.8403 24.1387C80.3381 24.1387 80.7577 24.096 81.099 24.0107C81.4403 23.9111 81.7603 23.7404 82.059 23.4987C82.3577 23.2427 82.5781 22.8729 82.7203 22.3893C82.8626 21.8916 82.9337 21.2587 82.9337 20.4907V18.3147L80.1177 17.6747V13.3227H89.611L89.5897 28H85.7923L85.5363 25.7387ZM91.7418 28V3.872L90.4618 3.104V1.12L97.3098 0.0533333H98.6965V28H91.7418ZM110.115 25.888C110.741 25.888 111.217 25.632 111.544 25.12C111.886 24.5938 112.056 23.8756 112.056 22.9653V16.224C112.056 13.4507 111.402 12.064 110.094 12.064C109.482 12.064 109.006 12.3129 108.664 12.8107C108.323 13.3084 108.152 14.0124 108.152 14.9227V21.856C108.152 24.544 108.807 25.888 110.115 25.888ZM109.944 28.448C106.687 28.448 104.305 27.7084 102.798 26.2293C101.29 24.7502 100.536 22.3893 100.536 19.1467C100.536 15.9324 101.297 13.5147 102.819 11.8933C104.341 10.2578 106.815 9.44 110.243 9.44C113.585 9.44 115.996 10.2222 117.475 11.7867C118.968 13.3369 119.715 15.6907 119.715 18.848C119.715 22.1191 118.926 24.5369 117.347 26.1013C115.783 27.6658 113.315 28.448 109.944 28.448ZM127.031 28.448C125.111 28.448 123.767 27.872 122.999 26.72C122.245 25.568 121.868 23.6196 121.868 20.8747V13.6213H120.396V10.656L122.914 9.86667L125.09 4.896H128.844V9.86667H132.343V13.6213H128.78V21.5573C128.78 22.6951 128.944 23.4489 129.271 23.8187C129.598 24.1884 130.103 24.3733 130.786 24.3733C131.084 24.3733 131.355 24.3378 131.596 24.2667C131.838 24.1956 132.037 24.096 132.194 23.968V26.8693C131.98 27.0827 131.703 27.296 131.362 27.5093C131.02 27.7084 130.451 27.9147 129.655 28.128C128.873 28.3413 127.998 28.448 127.031 28.448Z" fill="#0D0C1D"/>
</svg>
